# xmcd
#
# Track frame offsets:
# 150
# 11313
# 24733
# 43229
# 54764
# 66715
# 82959
# 91609
# 116680
# 132617
# 148863
#
# Disc length: 2147 seconds
#
#
# Revision: 0
# Processed by: cddbd v1.5.2PL0 Copyright (c) Steve Scherf et al.
# Submitted via: Nero 7, 11, 10, 0 
#
DISCID=9508610b
DTITLE=Ryan and The Del Rays - 1949 Chevrolet Blues
DYEAR=2002
DGENRE=Blues
TTITLE0=The House Is Rockin'
TTITLE1=Guitar Hurricane
TTITLE2=Life In Our World
TTITLE3=Love Struck Baby
TTITLE4=Mary Had A Little Lamb
TTITLE5=Pride And Joy
TTITLE6=Tiger Man
TTITLE7=Voodoo Chile
TTITLE8=Malted Milk
TTITLE9=1949 Chevrolet Blues
TTITLE10=Oreo Cookie Blues
EXTD=
EXTT0=The House Is Rockin'
EXTT1=Guitar Hurricane
EXTT2=Life In Our World
EXTT3=Love Struck Baby
EXTT4=Mary Had A Little Lamb
EXTT5=Pride And Joy
EXTT6=Tiger Man
EXTT7=Voodoo Chile
EXTT8=Malted Milk
EXTT9=1949 Chevrolet Blues
EXTT10=Oreo Cookie Blues
PLAYORDER=
